<?xml version="1.0" encoding="utf-8"?>
<!-- Generator: Adobe Illustrator 19.0.0, SVG Export Plug-In . SVG Version: 6.00 Build 0)  -->
<svg version="1.1" id="Layer_1" xmlns="http://www.w3.org/2000/svg" xmlns:xlink="http://www.w3.org/1999/xlink" x="0px" y="0px"
	 viewBox="0 0 841.9 595.3" style="enable-background:new 0 0 841.9 595.3;" xml:space="preserve">
<style type="text/css">
	.st0{fill:#212B3A;}
	.st1{fill:#405EAA;}
</style>
<g id="XMLID_2_">
	<path id="XMLID_49_" class="st0" d="M241,282.4c7.2,0,12.9,2,17.1,6.1c4.2,4.1,6.5,8.6,7.1,13.7h-14.2c-0.5-2.2-1.7-4-3.6-5.4
		c-1.9-1.4-4.1-2.1-6.6-2.1c-3.6,0-6.5,1.3-8.5,3.9c-2.1,2.6-3.1,6.1-3.1,10.4c0,4.3,1,7.8,3.1,10.4c2.1,2.6,4.9,3.9,8.5,3.9
		c2.5,0,4.7-0.7,6.6-2.1c1.9-1.4,3.1-3.2,3.6-5.4h14.2c-0.6,5-3,9.6-7.1,13.7c-4.2,4.1-9.9,6.1-17.1,6.1c-7.4,0-13.5-2.5-18.3-7.6
		c-4.8-5.1-7.2-11.4-7.2-18.9s2.4-13.9,7.2-18.9C227.6,284.9,233.6,282.4,241,282.4z"/>
	<polygon id="XMLID_48_" class="st0" points="446.5,283.5 458.7,317.7 471.2,283.5 485.4,283.5 465.1,334.3 452.3,334.3 
		431.9,283.5 	"/>
	<rect id="XMLID_24_" x="486.9" y="283.5" class="st0" width="13.8" height="50.8"/>
	<polygon id="XMLID_23_" class="st0" points="566.7,283.5 576.9,317 587.4,283.5 599.6,283.5 582.5,334.3 570.2,334.3 552.5,283.5 	
		"/>
	<rect id="XMLID_22_" x="269" y="261.6" class="st0" width="13.8" height="72.7"/>
	<path id="XMLID_21_" class="st0" d="M426.2,283l1.6,0.1V296c-1-0.2-1.9-0.3-2.7-0.3c-4.1,0-7.1,1.1-9.2,3.2
		c-2,2.1-3.1,5.5-3.1,10.1v25.3h-13.8v-50.8h12.7v6.6C414.8,285.4,419.6,283,426.2,283z"/>
	<g id="XMLID_16_">
		<path id="XMLID_18_" class="st0" d="M378.7,283.5v6.2c-3.4-4.9-8.7-7.4-16.1-7.4c-7.2,0-12.9,2.5-17.1,7.6c-4.2,5-6.3,11.4-6.3,19
			c0,7.6,2.1,14,6.3,19c4.2,5,9.9,7.6,17.1,7.6c7.4,0,12.7-2.5,16.1-7.4v6.2h12.7v-50.8H378.7z M374.6,319.3
			c-2.3,2.7-5.3,4.1-9.1,4.1c-3.7,0-6.8-1.4-9.1-4.1c-2.3-2.7-3.4-6.2-3.4-10.4c0-4.2,1.1-7.7,3.4-10.4c2.3-2.7,5.3-4.1,9.1-4.1
			c3.7,0,6.8,1.4,9.1,4.1c2.3,2.7,3.4,6.2,3.4,10.4C378,313.1,376.9,316.6,374.6,319.3z"/>
	</g>
	<g id="XMLID_10_">
		<path id="XMLID_11_" class="st0" d="M338,308.8c0-7.6-2.3-13.9-7-18.9c-4.7-5-10.7-7.5-18.2-7.5c-7.4,0-13.5,2.5-18.3,7.6
			c-4.8,5-7.2,11.3-7.2,18.9c0,7.8,2.4,14.2,7.2,19.2c4.8,5,10.9,7.5,18.4,7.5c5.8,0,10.9-1.6,15.3-4.8c4.4-3.2,7.3-7.4,8.8-12.6
			h-13.9c-0.8,1.8-2.1,3.2-3.8,4.1c-1.8,0.9-3.8,1.4-6,1.4c-3.5,0-6.3-0.9-8.4-2.8c-2.1-1.8-3.4-4.5-3.9-8h36.8L338,308.8z
			 M301.2,303c0.6-3,1.9-5.3,3.9-7c2-1.7,4.6-2.6,7.7-2.6c3.2,0,5.8,0.9,7.8,2.6c2,1.7,3.3,4.1,3.8,7H301.2z"/>
	</g>
	<g id="XMLID_6_">
		<path id="XMLID_7_" class="st0" d="M555.9,308.8c0-7.6-2.3-13.9-7-18.9c-4.7-5-10.7-7.5-18.2-7.5c-7.4,0-13.5,2.5-18.3,7.6
			c-4.8,5-7.2,11.3-7.2,18.9c0,7.8,2.4,14.2,7.2,19.2c4.8,5,10.9,7.5,18.4,7.5c5.8,0,10.9-1.6,15.3-4.8c4.4-3.2,7.3-7.4,8.8-12.6
			h-13.9c-0.8,1.8-2.1,3.2-3.8,4.1c-1.8,0.9-3.8,1.4-6,1.4c-3.5,0-6.3-0.9-8.4-2.8c-2.1-1.8-3.4-4.5-3.9-8h36.8L555.9,308.8z
			 M519,303c0.6-3,1.9-5.3,3.9-7c2-1.7,4.6-2.6,7.7-2.6c3.2,0,5.7,0.9,7.8,2.6c2,1.7,3.3,4.1,3.8,7H519z"/>
	</g>
	<path id="XMLID_5_" class="st0" d="M493.8,260.4c2.5,0,4.5,0.8,6,2.4c1.6,1.6,2.3,3.6,2.3,6c0,2.4-0.8,4.4-2.3,5.9s-3.6,2.3-6,2.3
		c-2.5,0-4.5-0.8-6-2.3c-1.6-1.6-2.3-3.5-2.3-5.9c0-2.4,0.8-4.4,2.3-6C489.3,261.1,491.3,260.4,493.8,260.4z"/>
	<polygon id="XMLID_3_" class="st1" points="627.7,283.5 619.7,308.6 611.3,334.3 598.9,334.3 593.5,318.6 599.6,300.5 605.6,317 
		616.1,283.5 	"/>
</g>
</svg>
